<svg xmlns="http://www.w3.org/2000/svg" width="600" height="460" viewBox="0 0 600 460" fill="none">
  <title>A coast after rain — original illustrated travel memory</title>
  <desc>Original vector illustration by the MIRA project: a small ochre lighthouse on a quiet coastal headland, pale moon, teal water and warm windows. It is an illustration, not a generated photograph.</desc>
  <defs><linearGradient id="sky" x1="0" y1="0" x2="0" y2="350" gradientUnits="userSpaceOnUse"><stop stop-color="#78969a"/><stop offset="1" stop-color="#e4c9a4"/></linearGradient><linearGradient id="sea" x1="0" y1="250" x2="0" y2="460" gradientUnits="userSpaceOnUse"><stop stop-color="#527a7c"/><stop offset="1" stop-color="#26494e"/></linearGradient><linearGradient id="land" x1="400" y1="180" x2="400" y2="460" gradientUnits="userSpaceOnUse"><stop stop-color="#566c58"/><stop offset="1" stop-color="#243c38"/></linearGradient><radialGradient id="glow"><stop stop-color="#fce0a9" stop-opacity=".75"/><stop offset="1" stop-color="#fce0a9" stop-opacity="0"/></radialGradient></defs>
  <path fill="url(#sky)" d="M0 0h600v460H0z"/><circle cx="142" cy="97" r="25" fill="#f0dfbc" opacity=".86"/><path d="M0 166c69-20 139-9 199-19s103-12 167-4M355 87c92-11 160 3 245-13" stroke="#e5d7ba" stroke-opacity=".23" stroke-width="10" stroke-linecap="round"/>
  <path d="M0 223c97-31 163-13 228-9s137-15 190-7 123 4 182-13v134H0z" fill="#809797" opacity=".48"/><path fill="url(#sea)" d="M0 244h600v216H0z"/>
  <path d="M600 196c-54 20-113 17-130 47s-68 43-95 59-62 39-112 44-98 59-109 114h446z" fill="url(#land)"/><path d="M600 235c-103 21-121 60-172 77s-110 45-136 77-21 71-21 71h329z" fill="#253e3a" opacity=".63"/><path d="M582 229c-36 5-58 27-83 42s-29 9-57 23-21 24-47 31-67 18-88 39" stroke="#b0af89" stroke-opacity=".5" stroke-width="3"/>
  <path d="m443 129-12 134h48l-12-134z" fill="#d5be91"/><path d="m459 129 8 134h12l-12-134z" fill="#a08e6a"/><path d="M430 118h50v17h-50z" fill="#3b5350"/><path d="M436 93h38v26h-38z" fill="#d8b978"/><path d="M436 93h38v7h-38z" fill="#324a48"/><path d="m431 92 24-19 25 19z" fill="#354e4d"/><path d="M455 67v8" stroke="#354e4d" stroke-width="3"/><path d="M451 168h9v16h-9zm-3 74h13v21h-13z" fill="#354b45"/><path d="M437 108h37" stroke="#f8dfa2" stroke-width="4"/><circle cx="455" cy="108" r="65" fill="url(#glow)"/>
  <path d="m371 241 41-10 25 25-59 10z" fill="#344a43"/><path d="m380 263 49-10v35l-49 11z" fill="#a1926e"/><path d="m391 269 10-2v12l-10 2zm17-4 9-2v12l-9 2z" fill="#eacb8b"/>
  <g stroke="#c0c8b0" stroke-linecap="round" opacity=".44"><path d="M30 275h100m56 1h59M71 302h107m-154 23h81m34 11h97M16 371h69m38 20h49m-121 32h65M226 265h98m-14 29h43"/><path d="M17 287h37m100 21h48m-7 48h44m-62 46h42" stroke-width="2"/></g>
  <g stroke="#304d50" stroke-width="2.5" stroke-linecap="round"><path d="m234 105 8-4 8 3m35 26 9-4 9 4m-88 8 6-3 6 2"/></g>
  <path d="M0 446c126-39 169-24 233-36-11 14-18 32-19 50H0z" fill="#233d39"/><g stroke="#73836c" stroke-linecap="round"><path d="m29 454 9-38m-2 20 10-11m6 25 8-42m-3 18-8-15m51 34 4-37m-2 17 11-12m45 22 3-37m-1 13-10-7"/></g>
</svg>
